<svg xmlns="http://www.w3.org/2000/svg" width="136" height="29.043" viewBox="0 0 136 29.043"><g transform="translate(-277.675 -914.027)"><g transform="translate(277.675 914.027)"><path d="M288.36,914.949h1.195v21.759H288.36v-2.18a5.548,5.548,0,0,1-4.716,2.508c-3.075,0-5.969-2.209-5.969-6.477,0-4.448,3.015-6.3,5.969-6.3a5.511,5.511,0,0,1,4.716,2.387Zm-9.431,15.581c0,3.551,2.327,5.371,4.776,5.371,2.417,0,4.715-1.82,4.715-5.371,0-2.836-1.761-5.135-4.776-5.135C281.137,925.395,278.929,927.127,278.929,930.53Z" transform="translate(-277.675 -914.531)" fill="#1d1d1d"/><path d="M325,914.027l.955.479L310.911,941.4l-.955-.479Z" transform="translate(-295.322 -914.027)" fill="#1d1d1d"/><path d="M359.067,934.833h2.925v11.549c0,2.955-.328,5.074-2.06,6.538a6.385,6.385,0,0,1-4.178,1.344,5.556,5.556,0,0,1-4.12-1.553,7.067,7.067,0,0,1-1.85-3.91h2.836a4.17,4.17,0,0,0,.925,1.971,3,3,0,0,0,2.269.865,3.14,3.14,0,0,0,2.3-.836,4.139,4.139,0,0,0,.955-3.164V946a4.551,4.551,0,0,1-3.821,1.791,5.335,5.335,0,0,1-4.148-1.7,7.111,7.111,0,0,1-1.881-4.985,6.675,6.675,0,0,1,1.851-4.866,5.719,5.719,0,0,1,4.269-1.733,4.722,4.722,0,0,1,3.73,1.7Zm-5.581,3.132a4.375,4.375,0,0,0-1.283,3.194,4.315,4.315,0,0,0,1.253,3.165,3.419,3.419,0,0,0,2.24.836,3.186,3.186,0,0,0,2.447-1.016,4.645,4.645,0,0,0-.09-6.118,3.106,3.106,0,0,0-2.357-.9A3.026,3.026,0,0,0,353.486,937.965Z" transform="translate(-316.785 -925.22)" fill="#1d1d1d"/></g><path d="M396.045,944.532a6.587,6.587,0,0,1-2.119,2.3,6.914,6.914,0,0,1-3.7.955,5.57,5.57,0,0,1-4.239-1.613,6.744,6.744,0,0,1-1.851-4.805,7.358,7.358,0,0,1,2-5.162,5.725,5.725,0,0,1,4.209-1.7,5.413,5.413,0,0,1,4.029,1.643,7.546,7.546,0,0,1,1.762,5.313v.357h-9.014a4.148,4.148,0,0,0,1.074,2.537,2.986,2.986,0,0,0,2.239.807,3.087,3.087,0,0,0,2-.627,4.554,4.554,0,0,0,1.164-1.373Zm-2.9-5.1a3.032,3.032,0,0,0-.894-1.7,3.048,3.048,0,0,0-4.03.09,3.283,3.283,0,0,0-.9,1.612Z" transform="translate(-58.199 -11.193)" fill="#1d1d1d"/><path d="M429.322,941.13a6.717,6.717,0,1,1-6.717-6.628A6.53,6.53,0,0,1,429.322,941.13Zm-2.986.029c0-2.865-1.88-4.03-3.73-4.03s-3.731,1.164-3.731,4.03c0,2.419,1.433,4,3.731,4S426.336,943.577,426.336,941.159Z" transform="translate(-75.558 -11.193)" fill="#1d1d1d"/><path d="M452.254,934.833h2.925v1.132a5.122,5.122,0,0,1,1.224-1.045,3.379,3.379,0,0,1,1.791-.418,4.354,4.354,0,0,1,2.3.6l-1.193,2.656a2.649,2.649,0,0,0-1.492-.447,2.285,2.285,0,0,0-1.822.685,4.056,4.056,0,0,0-.806,2.9V947.4h-2.925Z" transform="translate(-95.437 -11.193)" fill="#1d1d1d"/><path d="M480.486,934.833h2.925v11.549c0,2.955-.328,5.074-2.06,6.538a6.386,6.386,0,0,1-4.178,1.344,5.556,5.556,0,0,1-4.119-1.553,7.068,7.068,0,0,1-1.851-3.91h2.836a4.162,4.162,0,0,0,.925,1.971,3,3,0,0,0,2.268.865,3.142,3.142,0,0,0,2.3-.836,4.139,4.139,0,0,0,.955-3.164V946a4.552,4.552,0,0,1-3.821,1.791,5.336,5.336,0,0,1-4.149-1.7,7.113,7.113,0,0,1-1.881-4.985,6.675,6.675,0,0,1,1.851-4.866,5.719,5.719,0,0,1,4.269-1.733,4.723,4.723,0,0,1,3.731,1.7Zm-5.582,3.132a4.375,4.375,0,0,0-1.283,3.194,4.315,4.315,0,0,0,1.253,3.165,3.419,3.419,0,0,0,2.24.836,3.187,3.187,0,0,0,2.448-1.016,4.646,4.646,0,0,0-.09-6.118,3.106,3.106,0,0,0-2.357-.9A3.026,3.026,0,0,0,474.9,937.965Z" transform="translate(-105.485 -11.193)" fill="#1d1d1d"/><path d="M507.959,919.624a1.88,1.88,0,1,1-1.88,1.881A1.837,1.837,0,0,1,507.959,919.624Zm1.463,7.075v12.565H506.5V926.7Z" transform="translate(-124.862 -3.06)" fill="#1d1d1d"/><path d="M532.084,944.532a6.6,6.6,0,0,1-2.119,2.3,6.914,6.914,0,0,1-3.7.955,5.57,5.57,0,0,1-4.239-1.613,6.744,6.744,0,0,1-1.851-4.805,7.358,7.358,0,0,1,2-5.162,5.727,5.727,0,0,1,4.21-1.7,5.413,5.413,0,0,1,4.029,1.643,7.545,7.545,0,0,1,1.762,5.313v.357H523.16a4.151,4.151,0,0,0,1.074,2.537,2.986,2.986,0,0,0,2.239.807,3.084,3.084,0,0,0,2-.627,4.541,4.541,0,0,0,1.164-1.373Zm-2.9-5.1a3.035,3.035,0,0,0-.894-1.7,3.048,3.048,0,0,0-4.03.09,3.287,3.287,0,0,0-.9,1.612Z" transform="translate(-132.567 -11.193)" fill="#1d1d1d"/><path d="M552.25,935.231l3.224,7.162,3.224-7.162h3.284l-6.508,13.46-6.508-13.46Z" transform="translate(-148.307 -11.592)" fill="#1d1d1d"/></g></svg>