<svg xmlns="http://www.w3.org/2000/svg" xmlns:xlink="http://www.w3.org/1999/xlink" width="395" height="395" viewBox="0 0 395 395"><defs><clipPath id="a"><circle cx="195" cy="195" r="195" fill="none" stroke="#1d1d1d" stroke-miterlimit="10" stroke-width="5"/></clipPath></defs><g transform="translate(-36 -53.5)" opacity="0.1"><g transform="translate(38.5 56)" clip-path="url(#a)"><g transform="translate(48.569 19.824)"><path d="M138.9,494.217c-3,5.734,3.334,11.935,9.268,14.535,5.934,2.534,13.335,5.134,14.6,11.468,5.667,27.137,13,56.874,35.738,72.676.8-5.467,1.667-10.935,2.467-16.4a294.453,294.453,0,0,1-7.935,57.607c-1.667,7-3.6,14.2-2.133,21.2s5.867,15.468.6,20.336c-1.333-9.734-2.733-19.536-4.067-29.27M247.846,353c4.334,4.2,3.467,11.8-.267,16.536s-9.468,7.334-15,9.8l-30.8,13.6c-8.868,3.934-17.936,7.934-24.937,14.668-6.6,6.334-10.868,14.668-14.735,22.936a311.492,311.492,0,0,0-13.535,34.537M213.509,382m-62.274,66.941c.934-8.868,6.867-16.2,10.868-24.136" transform="translate(-138.13 -228.037)" fill="none" stroke="#1d1d1d" stroke-miterlimit="10" stroke-width="4.182"/><path d="M426.8,126.761a3.483,3.483,0,0,1,.467-5.068,16.65,16.65,0,0,1,1.267,5.068c-.134.8-1.534.666-1.6-.067" transform="translate(-285.624 -109.492)" stroke="#1d1d1d" stroke-miterlimit="10" stroke-width="1"/><path d="M413.779,258.743c1.2-1.667,2.334-3.4,3.534-5.068a6.485,6.485,0,0,1-2.8,5.267" transform="translate(-279.4 -177.133)" stroke="#1d1d1d" stroke-miterlimit="10" stroke-width="1"/><path d="M527.024,317.41" transform="translate(-337.438 -209.797)" stroke="#1d1d1d" stroke-miterlimit="10" stroke-width="1"/><path d="M528.255,316.726" transform="translate(-338.069 -209.446)" stroke="#1d1d1d" stroke-miterlimit="10" stroke-width="1"/><path d="M513.128,807.8a1.254,1.254,0,0,1-1.267,1.2,2.01,2.01,0,0,1-.467,3.067,10.808,10.808,0,0,1,.267-6.8,8.012,8.012,0,0,0,1.467,2.4" transform="translate(-329.209 -459.822)" stroke="#1d1d1d" stroke-miterlimit="10" stroke-width="1"/><path d="M656.434,796.237a11.678,11.678,0,0,1-4,4.8,4.736,4.736,0,0,1,3.867-4.8" transform="translate(-401.707 -455.196)" stroke="#1d1d1d" stroke-miterlimit="10" stroke-width="1"/><path d="M423.49,149.457" transform="translate(-284.377 -123.721)" stroke="#1d1d1d" stroke-miterlimit="10" stroke-width="1"/><path d="M399.282,124.7c.6.2,1.2.467,1.8.734" transform="translate(-271.97 -111.034)" stroke="#1d1d1d" stroke-miterlimit="10" stroke-width="1"/><path d="M413.1,615.93a2.027,2.027,0,0,1-2.6,1.2,23.7,23.7,0,0,0,.4-6.867,3.717,3.717,0,0,1,2.4-.267,12.2,12.2,0,0,1-.066,6" transform="translate(-277.718 -359.699)" stroke="#1d1d1d" stroke-miterlimit="10" stroke-width="1"/><path d="M426.087,871.926c.6-.6-1-1.2-1.4-.467s.066,1.6.267,2.4c.2.867-.267,2-1.067,1.867a8.363,8.363,0,0,0-.533-5.534,3.536,3.536,0,0,1,2.467-.333,1.606,1.606,0,0,1,.067,2" transform="translate(-284.307 -492.88)" stroke="#1d1d1d" stroke-miterlimit="10" stroke-width="1"/><path d="M384.632,781.288a2.449,2.449,0,0,1-3.267.733c.934-.8,1.934-1.534,2.934-2.334,1.2.533,2.4,1.133,3.6,1.667-.333.534-.6,1.067-.934,1.667a3.907,3.907,0,0,0-2.267-1.734" transform="translate(-262.788 -446.714)" stroke="#1d1d1d" stroke-miterlimit="10" stroke-width="1"/><path d="M461.165,220.987a6.1,6.1,0,0,1-5.534,4.867,5.607,5.607,0,0,1,5.534-4.867" transform="translate(-300.849 -160.379)" stroke="#1d1d1d" stroke-miterlimit="10" stroke-width="1"/><path d="M432.38,134.139a9.655,9.655,0,0,1,4.534,5.2,6.129,6.129,0,0,1-4.534-5.2" transform="translate(-288.933 -115.87)" stroke="#1d1d1d" stroke-miterlimit="10" stroke-width="1"/><path d="M423,909.538a5.713,5.713,0,0,1,.867,5.267,7.647,7.647,0,0,1-3-7.667,2.561,2.561,0,0,1,2.667-.067,1.661,1.661,0,0,0-.4,2.4" transform="translate(-282.954 -511.823)" stroke="#1d1d1d" stroke-miterlimit="10" stroke-width="1"/><path d="M407.288,225.809l2,2.2a8.582,8.582,0,0,1-7.134-3.667,3.791,3.791,0,0,1,5.068,1.467" transform="translate(-273.442 -161.868)" stroke="#1d1d1d" stroke-miterlimit="10" stroke-width="1"/><path d="M665.308,782.013a8.67,8.67,0,0,1-4.934,6.934,17.658,17.658,0,0,1,4.934-6.934" transform="translate(-405.78 -447.906)" stroke="#1d1d1d" stroke-miterlimit="10" stroke-width="1"/><path d="M386.836,810.015a2.2,2.2,0,0,0,1.933.133c-.4-.467-.867-.867-1.267-1.333a1.862,1.862,0,0,0,.666-2.867c.934.4,1.8.733,2.734,1.067-1.133.067-1.4,2.134-.267,2.467a6.654,6.654,0,0,1-2.867,2.2,2.11,2.11,0,0,1-.934-1.6" transform="translate(-265.592 -460.173)" stroke="#1d1d1d" stroke-miterlimit="10" stroke-width="1"/><path d="M669.127,1014.657" transform="translate(-410.266 -567.136)" stroke="#1d1d1d" stroke-miterlimit="10" stroke-width="1"/><path d="M668.529,1005.4a13.725,13.725,0,0,1,.333-8.8" transform="translate(-409.668 -557.884)" stroke="#1d1d1d" stroke-miterlimit="10" stroke-width="1"/><path d="M233.792,913.858" transform="translate(-187.157 -515.476)" stroke="#1d1d1d" stroke-miterlimit="10" stroke-width="1"/><path d="M668.717,865.032" transform="translate(-410.056 -490.453)" stroke="#1d1d1d" stroke-miterlimit="10" stroke-width="1"/><path d="M531.4,303.049" transform="translate(-339.681 -202.437)" stroke="#1d1d1d" stroke-miterlimit="10" stroke-width="1"/><path d="M263.886,768.778a24.574,24.574,0,0,1-2.467-10.4,13.755,13.755,0,0,1,.533-4.4,28.823,28.823,0,0,1,1.933,14.8" transform="translate(-201.315 -433.537)" stroke="#1d1d1d" stroke-miterlimit="10" stroke-width="1"/><path d="M478.967,587.47c-.134,1.133-.8,2.534-1.867,2.267-.133-5.467-.133-10.935-.133-16.4a4.177,4.177,0,0,1,2.534-.267,69.3,69.3,0,0,1-.533,14.4" transform="translate(-311.784 -340.774)" stroke="#1d1d1d" stroke-miterlimit="10" stroke-width="1"/><path d="M476.8,224.41a7.128,7.128,0,0,1-5.6.867c-1.467-.667-1.334-3-.134-4.067s2.934-1.2,4.534-1.2a10.524,10.524,0,0,1,5.4.867c1.6.867,2.8,2.867,2.267,4.6a21.073,21.073,0,0,1-6.067-3.467,3.777,3.777,0,0,0-.4,2.4" transform="translate(-308.279 -159.869)" stroke="#1d1d1d" stroke-miterlimit="10" stroke-width="1"/><path d="M375.039,232.128c-1.267-1.667.533-4,2.4-4.934a14.643,14.643,0,0,1,9.335-1.4,3.2,3.2,0,0,1-.8,5.067,3.283,3.283,0,0,1-4.4-2.667c-2.134,1.333-4.334,2.6-6.534,3.934" transform="translate(-259.328 -162.719)" stroke="#1d1d1d" stroke-miterlimit="10" stroke-width="1"/><path d="M439.58,264.414c0,1.6-2,2.267-3.6,2.467a113.032,113.032,0,0,1-16.469.534c-.2-1.8,2.133-2.534,3.867-2.667,5.4-.4,10.8-.467,16.2-.333" transform="translate(-282.332 -182.604)" stroke="#1d1d1d" stroke-miterlimit="10" stroke-width="1"/><path d="M439.432,905.835c.4-.4.533-1.267,0-1.267,0-.8,1.267-.2,1.467.534.6,2.8-.867,5.6-2.467,7.934a3.685,3.685,0,0,1-2.2,1.933c-1.933.467-3.267-1.8-4-3.667l-1-2.8a4.154,4.154,0,0,1-.333-2.667c.267-.867,1.467-1.534,2.134-.934a6.834,6.834,0,0,0,2.467,5.467c1.334-1.467,2.667-3,3.934-4.534" transform="translate(-288.117 -510.521)" stroke="#1d1d1d" stroke-miterlimit="10" stroke-width="1"/><path d="M419.25,96.665" transform="translate(-282.204 -96.665)" stroke="#1d1d1d" stroke-miterlimit="10" stroke-width="1"/><path d="M396.934,609l2.8.6c.134,10.534-.267,21.069-1.133,31.537-.467,1.133-2.067-.133-2.4-1.267a28.991,28.991,0,0,1-.2-14.135A45.684,45.684,0,0,0,396.934,609" transform="translate(-269.889 -359.237)" stroke="#1d1d1d" stroke-miterlimit="10" stroke-width="1"/><path d="M248.768,616.038c-1.067-4.534-2-9.4-.067-13.6a249.21,249.21,0,0,1,1.267,29.937c-1.267-5.334-2.534-10.6-3.867-15.935a2.57,2.57,0,0,1,2.667-.4" transform="translate(-193.465 -355.873)" stroke="#1d1d1d" stroke-miterlimit="10" stroke-width="1"/><path d="M386.2,640.006c-1.133.134-2.334.267-3.467.333.533-9.868,1-19.735,1.534-29.67.066-1.4,1.267-3.4,2.334-2.467a2.174,2.174,0,0,1,.533,1.2,40.411,40.411,0,0,1,.4,6.334c-.133,8.134-2.8,16.269-1.333,24.27" transform="translate(-263.489 -358.705)" stroke="#1d1d1d" stroke-miterlimit="10" stroke-width="1"/><path d="M531.556,221.457a133,133,0,0,1,2.4,25.27c0,2.334-.4,5.134-2.6,6.067-.533-9.668-1.067-19.4-1.6-29.137-.066-1.267.867-3,1.8-2.2" transform="translate(-338.836 -160.517)" stroke="#1d1d1d" stroke-miterlimit="10" stroke-width="1"/><path d="M478.8,209.847c-2.067-.4-2-3.334-3.067-5.134-1.4-2.4-4.734-2.467-7.467-2.334-4.667.333-9.335.667-14,.934-1-1.467,1.133-3.067,2.867-3.467a46.777,46.777,0,0,1,15.535-1c4.867.533,8.267,6.6,6.134,11" transform="translate(-300.019 -148.906)" stroke="#1d1d1d" stroke-miterlimit="10" stroke-width="1"/><path d="M363.847,216.115c-1.667-3.8.8-8.4,4.4-10.535,3.6-2.067,7.934-2.334,12.068-2.467a13.737,13.737,0,0,1,5.467.4,5.217,5.217,0,0,1,3.534,3.8l-10.8.2c-4.667.134-10.4.934-12,5.334-.533,1.467-1.133,3.6-2.667,3.267" transform="translate(-253.537 -151.173)" stroke="#1d1d1d" stroke-miterlimit="10" stroke-width="1"/><path d="M431.046,536.317c.667-1.133,2.534-.8,3.267.267a5.564,5.564,0,0,1,.666,3.734c-.4,6-.733,12-1.133,17.936-.067,1.867-.2,3.8.734,5.4.867,1.533,2.733,3.2,1.734,4.734l-5.668.2a248.245,248.245,0,0,1,.4-32.271" transform="translate(-287.865 -321.624)" stroke="#1d1d1d" stroke-miterlimit="10" stroke-width="1"/><path d="M423.949,611.709a22.316,22.316,0,0,1,8.4.6c.133.933.267,1.867.4,2.867-2.2-.267-3.067,2.667-3.134,4.867-.2,7.468-.4,14.935-.6,22.469-1,.934-2.8.267-3.467-.934a6.552,6.552,0,0,1-.333-4.067,157.858,157.858,0,0,0,.867-18.6c0-1.8-.4-4-2.133-4.467V611.87" transform="translate(-284.612 -360.545)" stroke="#1d1d1d" stroke-miterlimit="10" stroke-width="1"/><path d="M536.069,549.957c-.4-4.6-.733-9.268-1.133-13.868.267-1.133,2.067-1.2,2.867-.333a5.679,5.679,0,0,1,.867,3.334q.2,15.1.4,30.2c-.734.867-2.2.533-2.934-.333a6.845,6.845,0,0,1-.934-3.2c-.333-4.2-.733-8.334-1.067-12.468,1.467.4,2.067-1.8,1.933-3.334" transform="translate(-341.083 -321.396)" stroke="#1d1d1d" stroke-miterlimit="10" stroke-width="1"/><path d="M522.781,569.585a214.164,214.164,0,0,1-.4-34.6c2.134-.333,3.134,2.534,3.4,4.667.333,3.4.734,6.8,1.133,10.268-1.867-.134-2.334,2.467-2.2,4.267.4,5,.867,10,1.267,15a6.553,6.553,0,0,1-3.2.4" transform="translate(-334.794 -321.288)" stroke="#1d1d1d" stroke-miterlimit="10" stroke-width="1"/><path d="M484.271,536.452c.734-.667,2.067-.2,2.667.6a6.484,6.484,0,0,1,.8,3c.6,8.6,1.267,17.2,1.934,25.87a6.063,6.063,0,0,1-.467,3.467c-.6,1.067-2.267,1.533-3.067.6,0-5.6,0-11.2-.067-16.869a2.971,2.971,0,0,0-2.267.067,107.766,107.766,0,0,1,.467-16.735" transform="translate(-315.221 -321.893)" stroke="#1d1d1d" stroke-miterlimit="10" stroke-width="1"/><path d="M468.859,552.475a1.744,1.744,0,0,1-2-.333,31.765,31.765,0,0,0-1.2,11.468c.066,1.534.267,3.134-.4,4.534-.667,1.333-2.667,2.2-3.8,1.133,1.334-10.068,2.667-20.2,4-30.27.2-1.534,1.534-3.667,2.8-2.734a2.582,2.582,0,0,1,.6,2v14.1" transform="translate(-303.835 -321.847)" stroke="#1d1d1d" stroke-miterlimit="10" stroke-width="1"/><path d="M553.413,631.012a3.137,3.137,0,0,1,.534,2.534c-.8.2-1.667.466-2.467.667-.467,3.134-.8,6.734,1.334,9.068,1,1,2.467,2.267,1.734,3.467a8.061,8.061,0,0,1-3.934.667,2.908,2.908,0,0,1-2.6-2.534l-.2-23.8c0-1.8,0-3.8,1.2-5.2s3.934-1.4,4.467.4a2.045,2.045,0,0,1-1.867,3.134,13.062,13.062,0,0,0,1.8,11.6" transform="translate(-348.092 -362.246)" stroke="#1d1d1d" stroke-miterlimit="10" stroke-width="1"/><path d="M385.386,532.41a15.63,15.63,0,0,0,6.334.467c.134.933.267,1.933.333,2.867a4.62,4.62,0,0,0-3.4,3.467,14.345,14.345,0,0,0-.134,5.067c.2,1.534.867,3.6,2.4,3.467.867.4.667,1.667.067,2.267-.6.667-1.534,1-2.134,1.6a4.788,4.788,0,0,0-1.267,3.4,15.956,15.956,0,0,0,2.934,10.068,10.033,10.033,0,0,1-6.4-.333,227.765,227.765,0,0,1,1.267-32.337" transform="translate(-264.141 -319.984)" stroke="#1d1d1d" stroke-miterlimit="10" stroke-width="1"/><path d="M461.582,614.126c.134.934.267,1.934.333,2.867-1.6,0-2.934,1.467-3.4,3.067a9.867,9.867,0,0,0,.333,4.8c1.133,4.6,3,9.135,2.933,13.8-.066,2.267-.666,4.734-2.467,6-1.867,1.333-5.067.533-5.334-1.734-.133-1.134,1.534-1.267,2.6-1.734,2.333-.934,2.066-4.334,1.333-6.734-.734-2.667-1.467-5.267-2.2-7.935-.8-2.8-1.6-5.734-.733-8.534.8-2.8,3.934-5.067,6.6-3.867" transform="translate(-300 -361.695)" stroke="#1d1d1d" stroke-miterlimit="10" stroke-width="1"/><path d="M508.466,536.208c-.2.734-.333,1.467-.533,2.2-1.133,4.133-2.2,8.467-1.267,12.668,1.334-.2,2.867,1.2,2.067,2.267a13.852,13.852,0,0,0-1.933,11.868c2.2.2,3.067,3.667,1.267,4.867-1.667,1.133-4,.067-5-1.6a11.978,11.978,0,0,1-.934-5.734c.2-8.734.333-17.535.533-26.336a16.972,16.972,0,0,1,5.8-.2" transform="translate(-324.681 -321.849)" stroke="#1d1d1d" stroke-miterlimit="10" stroke-width="1"/><path d="M624.314,692.84a151.02,151.02,0,0,1-5,35.8c-.467,1.734-.933,3.4-1.4,5.067-2.467-3.6-2-8.534-.6-12.668,1.334-4.2,3.467-8.2,3.934-12.535.6-5.467-1.067-12.069,3.067-15.669" transform="translate(-383.121 -402.205)" stroke="#1d1d1d" stroke-miterlimit="10" stroke-width="1"/><path d="M529.2,615.268c.933-.333,1.867-.6,2.8-.933a169.145,169.145,0,0,1-1.867,29c-.267,1.8-1.4,4.2-3.2,3.667a256.48,256.48,0,0,1-3.734-32.67c.933.267,1.867.6,2.8.933.133,6.067.267,12.268,2,18.136a51.817,51.817,0,0,0,1.2-18.136" transform="translate(-335.476 -361.971)" stroke="#1d1d1d" stroke-miterlimit="10" stroke-width="1"/><path d="M342.112,617.536a58.293,58.293,0,0,1-1,12.735,14.031,14.031,0,0,1-2.733,6.468c-1.467,1.867-4,3.067-6.267,2.4a215.615,215.615,0,0,1,1.933-31.471c2.334-1.067,5.134.4,6.467,2.534,1.334,2.2,1.534,4.8,1.6,7.334m-2.734,1.6c.2-3.2-.066-7.068-2.867-8.735-.6,8.334-1.133,16.6-1.734,24.936,1.867.067,2.8-2.267,3.134-4.134a104.547,104.547,0,0,0,1.467-12.068" transform="translate(-237.537 -358.371)" stroke="#1d1d1d" stroke-miterlimit="10" stroke-width="1"/><path d="M505.473,645.551c-1,.333-2.067.667-3.067,1a205.572,205.572,0,0,1,1.867-27.937,8.174,8.174,0,0,1,1.133-3.6,2.732,2.732,0,0,1,3.334-1.067q2.3,16.1,3.4,32.4c-1.267.6-2.867-.4-3.4-1.8a7.527,7.527,0,0,1,.133-4.2c-.666-.4-1.333-.8-2-1.133a6.659,6.659,0,0,0-1.4,6.334m3.067-7.6a103.8,103.8,0,0,0-1.333-17.6,75.24,75.24,0,0,0-1.8,17.269,3.941,3.941,0,0,1,3.134.333" transform="translate(-324.821 -361.65)" stroke="#1d1d1d" stroke-miterlimit="10" stroke-width="1"/><path d="M405.867,559.908a9.414,9.414,0,0,0-.934,5.868,6.61,6.61,0,0,1-3.6.267c1.134-10.068,2.6-20.069,4.334-30a3.667,3.667,0,0,1,.934-2.2c1-.934,2.734-.333,3.534.733a7.317,7.317,0,0,1,.934,3.934c.4,8.068.8,16.135,1.2,24.136a5.1,5.1,0,0,1-.534,3.333c-.6,1-2.2,1.334-2.867.467a8.985,8.985,0,0,0,.134-4.2,2.991,2.991,0,0,0-3.134-2.334m-.134-5.334a3.677,3.677,0,0,0,.333,2.067,3.722,3.722,0,0,0,2.534,1.267,60.96,60.96,0,0,0-.6-18.736,92.345,92.345,0,0,0-2.267,15.4" transform="translate(-273.021 -320.48)" stroke="#1d1d1d" stroke-miterlimit="10" stroke-width="1"/><path d="M475.371,645.723c.134-10.468.267-20.869.467-31.27a3.186,3.186,0,0,1,3-.067c-.066,4-.066,7.934-.066,11.868,0,1.534.867,3.8,2.267,3.2.933-.333,1.067-1.534,1.067-2.467,0-3.934.067-7.867.067-11.735,0-1.2,1.867-1.467,2.667-.667a4.644,4.644,0,0,1,.8,3.267c-.2,9.335-.333,18.6-.533,27.937a3.391,3.391,0,0,1-3,0c0-3.534.067-7.067.134-10.6a5.06,5.06,0,0,0-.667-3.134c-.667-.867-2.2-1.2-2.8-.267.066,3.467.066,7,.066,10.468a4.921,4.921,0,0,1-.666,3.2c-.6.867-2.2,1.2-2.8.267" transform="translate(-310.966 -361.822)" stroke="#1d1d1d" stroke-miterlimit="10" stroke-width="1"/><path d="M362.95,608.1a3.856,3.856,0,0,1,4.067,2.267,10.947,10.947,0,0,1,.934,4.867,116.783,116.783,0,0,1-1.133,17.4c-.4,3.134-1.534,6.8-4.6,7.534-3.2-1.067-4.134-5.068-4.334-8.468a68.643,68.643,0,0,1,1.667-18.8c.467-2,1.4-4.334,3.4-4.8m-1.333,7.8a171.646,171.646,0,0,0-.934,17.535c0,1.6.6,3.734,2.134,3.534a73.335,73.335,0,0,0,1.467-26.136c-1.934.733-2.4,3.067-2.667,5.067" transform="translate(-250.707 -358.735)" stroke="#1d1d1d" stroke-miterlimit="10" stroke-width="1"/><path d="M383.125,862.88a16.2,16.2,0,0,1,6.468,8.535,25.4,25.4,0,0,1-7.4-3.6c-6-4.2-10.068-10.6-13.935-16.869-1.867-2.867-3.667-5.8-5.467-8.668a11.067,11.067,0,0,1,1-12.668c2.467,2.4-.533,6.734.734,9.934.133.333.533.734.8.467.667-.6,1.6.4,1.933,1.266,2.8,6.535,6.868,12.468,10.935,18.336a1.785,1.785,0,0,1,2-.867,2.775,2.775,0,0,1-1.2,2c.666.2,1.4.4,2.133.666-.666.2-.6,1.334,0,1.667a1.982,1.982,0,0,0,2-.2" transform="translate(-252.48 -472.299)" stroke="#1d1d1d" stroke-miterlimit="10" stroke-width="1"/><path d="M446.707,456.5a50.709,50.709,0,0,1-19.4,12.2,34.314,34.314,0,0,1-12.4,2c-9-.333-17.535-5.4-22.87-12.735a66.428,66.428,0,0,0,12.468,8.068,27.338,27.338,0,0,0,5.467,2.134c6.267,1.6,12.935-.067,18.935-2.4a94.046,94.046,0,0,0,17.8-9.268" transform="translate(-268.255 -281.082)" stroke="#1d1d1d" stroke-miterlimit="10" stroke-width="1"/><path d="M365.143,563a5.539,5.539,0,0,1-2.934.4c-.533-5.334-1.133-10.6-1.667-15.869-.267-2.733,1.333-5.267,2-7.934s-.467-6.334-3.267-6.334c-.533,8.668-1.067,17.336-1.667,25.936a5.272,5.272,0,0,1-.867,3.2c-.734.867-2.334,1-2.867.067.533-10.268,1.2-20.469,2.067-30.737a2.448,2.448,0,0,1,.467-1.667,2.541,2.541,0,0,1,2.467-.6A9.179,9.179,0,0,1,365.61,540.8c-.8,2.4-2.6,4.734-1.867,7.067a36.345,36.345,0,0,1,1.4,15.135" transform="translate(-248.699 -318.441)" stroke="#1d1d1d" stroke-miterlimit="10" stroke-width="1"/><path d="M633.248,919.171c-1.2-1.734.267-4.267,2.267-4.934,1.933-.666,4.134-.067,6.134.6-.067,1.333-.067,2.667-.134,4a1.834,1.834,0,0,1-1.667.267,2.1,2.1,0,0,1-.267-1.667,9.2,9.2,0,0,0-3.8-.267,5.824,5.824,0,0,0,4.467,4.334,18.306,18.306,0,0,0,6.6,0,152.254,152.254,0,0,0,.533,27c.2,1.667-.067,3.934-1.734,4.134a209.885,209.885,0,0,0-1.6-28.2c-1.4,0-2.867.067-4.334.067.533,4.467,1.067,8.868,1.667,13.335.467,4,1,8,2.6,11.668a36.607,36.607,0,0,1,2.867,13.669c-1.133,0-2.2,0-3.334-.067.867-5.934-2.467-11.6-4.067-17.469-2.334-8.868-.8-19.069-6.2-26.47" transform="translate(-391.656 -515.522)" stroke="#1d1d1d" stroke-miterlimit="10" stroke-width="1"/><path d="M420.351,772.412a15.185,15.185,0,0,1-10.735,1.867,4.3,4.3,0,0,0-2-2.6c-4-2.934-8.4-6.6-8.334-11.535a7.853,7.853,0,0,1,4.134-6.6c2.534-1.333,5.6-1.133,8.4-.867,8.6.734,17.135,1.467,25.67,2.2a9.7,9.7,0,0,1,3.467,9.668,12.623,12.623,0,0,1-6.534,8.2c-2.334,1.2-4.734,2.467-7.334,2.667-2.6.267-5.467-.734-6.734-3m-13.2-5.134a13.2,13.2,0,0,0,6.467,3.534c2.4.4,5.2-.467,6.4-2.6,2.6,2.267,6,4.667,9.134,3.267,2.867-1.266,5.8-2.667,7.534-5.2,1.734-2.6,1.534-6.734-1.267-8.2a7.847,7.847,0,0,0-3.334-.667c-7.8-.533-15.668-1-23.469-1.534a7.8,7.8,0,0,0-3.067.2c-2.133.867-3,3.6-2.4,5.8a11.424,11.424,0,0,0,4,5.4" transform="translate(-271.969 -432.771)" stroke="#1d1d1d" stroke-miterlimit="10" stroke-width="1"/><path d="M385.936,714.578a19.407,19.407,0,0,1-31.537-14,63.98,63.98,0,0,0-3,35.537c1.667,8.468,5.068,17.469,1.4,25.27-3.4-14.335-6.867-28.937-5.334-43.539,1-9.2,3.934-18.336,3-27.6,4.734,7.4,9.534,14.8,14.268,22.136,2.8,4.334,9.268,4,14,2s9.2-5.2,14.335-5.134c5.6.067,10.268,4.067,15.2,6.8,4.934,2.667,12.135,3.6,15.335-1,4.667-6.734,9.268-13.4,13.935-20.136a150.527,150.527,0,0,1-1.867,69.142,2.8,2.8,0,0,1-1.333,2.067c-1,15-13.669,26.4-26.4,34.338-1.8,1.133-5.134,1.467-5.134-.667a4.907,4.907,0,0,1-3.667,4.467,17.679,17.679,0,0,1,3.6-8.534,2.63,2.63,0,0,1,.533,3.134c6.734-2.467,12.4-7.334,17.136-12.668a70.554,70.554,0,0,0,4.467-5.534,53.289,53.289,0,0,0,8.134-17.535c0-8.2,2.534-16.2,3.8-24.27a81.273,81.273,0,0,0-2.2-35.137c-3.934,8.534-9.868,18.469-19.2,18.2-5.334-.134-9.867-3.667-14.469-6.334-4.667-2.6-10.868-4.268-15-1" transform="translate(-245.222 -400.873)" stroke="#1d1d1d" stroke-miterlimit="10" stroke-width="1"/><path d="M329.251,209.117m-2.888-27.859c.333-6.2-1.379-11.612,4.421-13.879a53.1,53.1,0,0,0,4.6,35.6,107.3,107.3,0,0,0-4.534-44.538c-3.867-11.868,2.467-24.67,10.268-34.471,6.534-8.268,14.8-16,25.136-18.469,14.335-3.4,29.137,4.134,39.872,14.2,8.068,7.534,15,17.469,14.935,28.537,0,5.334-1.667,10.535-2.2,15.869-1.4,13.735,4.734,27.67,2.267,41.272a57.716,57.716,0,0,1-3.267,10.468c-3.734,9.4-8.668,18.736-16.535,25a36.632,36.632,0,0,1-39.405,3.267c-14.935-8.268-21.869-25.67-27.67-41.739m-13.2-16.935,3.8,5.068,28.562-64.49a3.7,3.7,0,0,0-.569.039c-3.1.48-7.376,3.925-8.661,6.8-1.447,3.237-3.82,8.613-4.263,10.911a134.911,134.911,0,0,0,4.667,65.941,10.7,10.7,0,0,0,0,7.067,10.068,10.068,0,0,0,1.133-7.067c1.133,0,2.334-.067,3.467-.067a7.765,7.765,0,0,0,3.734,7.068,13.093,13.093,0,0,1,4.467-13.669c-2.467,1.534-4.867,3-7.268,4.534,4.134-11.2,16.8-18.469,28.6-16.469,1.067.2,2.134-.467,3.134-.933,5.134-2.334,10.935,1.2,15.4,4.6,2.134,1.533,4.334,3.267,5.134,5.8,1.334,3.934-.8,9.468,2.734,11.735.066-2.934.2-5.868.333-8.8a5.307,5.307,0,0,1,.867,5.8,10.19,10.19,0,0,0,5.134,1.667,118.206,118.206,0,0,0-1.867-76.143c-1.933-5.334-7.4-8.8-12.935-9.935-5.5-1.112-13.653.111-21.328,1.078a6.884,6.884,0,0,1-.879.055Zm21.778,88.56c-1.267,2.8-2.6,5.667-3.934,8.468a19.437,19.437,0,0,1,10.868.267c1.867.6,3.867-.734,4.667-2.534a12.408,12.408,0,0,0,.533-5.668c-3.2-.333-5.467-3.534-5.734-6.668-.066-1.867,1.534-4.4,3.067-3.334-2.334,3.2.533,8.668,4.6,8.534,3-.066,6.467-2.467,8.6-.4-.333-1.133.467-2.267.867-3.467.8-2.467-.6-5.2-2.734-6.734-2.067-1.534-4.734-2.067-7.267-2.4a73.435,73.435,0,0,0-19.87.067c-2.733.4-5.6,1.067-7.6,3s-2.534,5.534-.467,7.4a10.054,10.054,0,0,1,1.867,1.467c.467.667.467,1.734-.267,2.067-1.2.4-1.2,2.2-.333,3.134a5.942,5.942,0,0,0,3.534,1.2,6.668,6.668,0,0,1,3.8-5.4l-3,11a14.635,14.635,0,0,0,6.267-11.934,7.51,7.51,0,0,1,6.867-7.334c-1.4,3.067-2.867,6.134-4.334,9.268m-4.734-16.868a23.846,23.846,0,0,1-3.067-.267c-1-.066-2.267.6-2.2,1.6,4.667-.4,9.268-.8,13.935-1.267a16.853,16.853,0,0,1,6.334.267c2.4.734,5.334,2.4,7,.534-.8-.467-1.6-.867-2.4-1.267-5.267-2.467-11.8-4.867-16.469-1.534-1,.734-1.933,1.734-3.134,1.934m-9.134,36.871a7.547,7.547,0,0,0,3.6,2.667c-.667-3.6-1.333-7.267-2-10.935a8.537,8.537,0,0,0-.8,5.734,2.281,2.281,0,0,0-.8,2.534m-34.8-53.34c.333-3.2.6-6.334.934-9.535-1.867.133-3.067,2.334-2.867,4.2.134,1.867,1.2,3.6,1.933,5.334m76.01,47.405a2.459,2.459,0,0,1-1.8.333c-.267,1.333-.467,2.6-.734,3.867.667.333,1.534-.734,1-1.334l4-2.2a11.458,11.458,0,0,0-1.467-4.4,3.44,3.44,0,0,0-1,3.734m-13.8,2.267c.4-.533.867-1.067,1.267-1.533a2.61,2.61,0,0,1-1.6-.067c-.467-.333-.533-1.133,0-1.333a.891.891,0,0,0-1.334,0,7.549,7.549,0,0,0-1.2,7.2c.867-1.467,1.734-3,2.6-4.467m4.134-6.934a6.072,6.072,0,0,0,2.467-4.4,11.288,11.288,0,0,0-.4-3.667c-.733,0-1.4,0-2.134.067a13.634,13.634,0,0,1,.067,8m-17.469,12a2.953,2.953,0,0,0,.533,2.133,2.809,2.809,0,0,0,2.534.333,10.432,10.432,0,0,0-2.867-6.6c-.067,1.4-.134,2.733-.2,4.134m7.4-5.334c-.934-.667-1.867-1.333-2.867-2a11.709,11.709,0,0,0,.267,6.6,9.292,9.292,0,0,0,2.667-4.267m-13.068,4.4a11.552,11.552,0,0,0-2.867-8.068,7.312,7.312,0,0,0,2.867,8.068m-10.068-3.4c-1-2.067.8-5.4-1.267-6.534a1.83,1.83,0,0,0-1.333-.067,6.5,6.5,0,0,0,2.6,6.6m16.6,8.068a3.958,3.958,0,0,0-3.867,2.334,5.056,5.056,0,0,0,3.534.333c1.133-.533,1.467-2.467.333-2.934m22.67-13.2c-.2-.667-.467-1.333-.667-2a1.463,1.463,0,0,0-.666,2.067,1.445,1.445,0,0,0,2.133.2c.667-2.133,1.333-4.334,2-6.534a6.414,6.414,0,0,0-2.4,6.134" transform="translate(-231.876 -100.771)" stroke="#1d1d1d" stroke-miterlimit="10" stroke-width="1"/><path d="M634.891,459.373,598.419,409.5m3.067,226.494a3.2,3.2,0,0,1-2.467,2.667,48.919,48.919,0,0,0-9.734-27.536c-2.133-2.867.734-6.734,3.334-9.2a101.642,101.642,0,0,0,30.337-74.342,8.577,8.577,0,0,1-7.6,1.133c5.334-1.333,10.6-2.667,15.935-3.934,2.2-.533,4.667-1.267,5.667-3.267.8-1.533.533-3.334.2-5.067q-3.4-20.4-6.934-40.938c-3.467-20.2-7.867-42.205-23.336-55.673-18.4-16-47.472-15.335-65.141-32.137m76.1,205.564" transform="translate(-344.983 -245.819)" fill="none" stroke="#1d1d1d" stroke-miterlimit="10" stroke-width="5.855"/></g></g><circle cx="195" cy="195" r="195" transform="translate(38.5 56)" fill="none" stroke="#1d1d1d" stroke-miterlimit="10" stroke-width="5"/></g></svg>